<svg viewBox="0 0 1200 900" width="1200" height="900" xmlns="http://www.w3.org/2000/svg" role="img" aria-label="Placeholder gallery photo">
  <defs>
    
  <filter id="grain-gallery-04" x="-20%" y="-20%" width="140%" height="140%">
    <feTurbulence type="fractalNoise" baseFrequency="0.85" numOctaves="2" seed="22" stitchTiles="stitch" result="noise" />
    <feColorMatrix in="noise" type="matrix" values="0 0 0 0 0.18  0 0 0 0 0.16  0 0 0 0 0.13  0 0 0 0.05 0" />
  </filter>
    <radialGradient id="grad-gallery-04" cx="58.00000000000001%" cy="35.5%" r="70%">
      <stop offset="0%" stop-color="#E8B23A" stop-opacity="0.16" />
      <stop offset="100%" stop-color="#E8B23A" stop-opacity="0" />
    </radialGradient>
  </defs>

  <rect width="1200" height="900" fill="#F4ECD9" />
  <rect width="1200" height="900" fill="url(#grad-gallery-04)" />
  <rect width="1200" height="900" filter="url(#grain-gallery-04)" opacity="0.5" />

  <rect x="48" y="36" width="1104" height="828" fill="none" stroke="#E2D6BE" stroke-width="1.5" />

  
  <g opacity="0.9">
    <ellipse cx="600" cy="375.12" rx="24.48" ry="66.24000000000001" fill="#FFFDF7" transform="rotate(130 600 450)" />
    <ellipse cx="600" cy="375.12" rx="24.48" ry="66.24000000000001" fill="#FFFDF7" transform="rotate(166 600 450)" />
    <ellipse cx="600" cy="375.12" rx="24.48" ry="66.24000000000001" fill="#FFFDF7" transform="rotate(202 600 450)" />
    <ellipse cx="600" cy="375.12" rx="24.48" ry="66.24000000000001" fill="#FFFDF7" transform="rotate(238 600 450)" />
    <ellipse cx="600" cy="375.12" rx="24.48" ry="66.24000000000001" fill="#FFFDF7" transform="rotate(274 600 450)" />
    <ellipse cx="600" cy="375.12" rx="24.48" ry="66.24000000000001" fill="#FFFDF7" transform="rotate(310 600 450)" />
    <ellipse cx="600" cy="375.12" rx="24.48" ry="66.24000000000001" fill="#FFFDF7" transform="rotate(346 600 450)" />
    <ellipse cx="600" cy="375.12" rx="24.48" ry="66.24000000000001" fill="#FFFDF7" transform="rotate(382 600 450)" />
    <ellipse cx="600" cy="375.12" rx="24.48" ry="66.24000000000001" fill="#FFFDF7" transform="rotate(418 600 450)" />
    <ellipse cx="600" cy="375.12" rx="24.48" ry="66.24000000000001" fill="#FFFDF7" transform="rotate(454 600 450)" />
    <circle cx="600" cy="450" r="37.44" fill="#E8B23A" />
  </g>
</svg>