<svg viewBox="0 0 1200 900" width="1200" height="900" xmlns="http://www.w3.org/2000/svg" role="img" aria-label="Placeholder gallery photo">
  <defs>
    
  <filter id="grain-gallery-03" x="-20%" y="-20%" width="140%" height="140%">
    <feTurbulence type="fractalNoise" baseFrequency="0.85" numOctaves="2" seed="52" stitchTiles="stitch" result="noise" />
    <feColorMatrix in="noise" type="matrix" values="0 0 0 0 0.18  0 0 0 0 0.16  0 0 0 0 0.13  0 0 0 0.05 0" />
  </filter>
    <radialGradient id="grad-gallery-03" cx="43.2%" cy="51.95000000000001%" r="70%">
      <stop offset="0%" stop-color="#E7A79C" stop-opacity="0.16" />
      <stop offset="100%" stop-color="#E7A79C" stop-opacity="0" />
    </radialGradient>
  </defs>

  <rect width="1200" height="900" fill="#F4ECD9" />
  <rect width="1200" height="900" fill="url(#grad-gallery-03)" />
  <rect width="1200" height="900" filter="url(#grain-gallery-03)" opacity="0.5" />

  <rect x="48" y="36" width="1104" height="828" fill="none" stroke="#E2D6BE" stroke-width="1.5" />

  
  <g opacity="0.9">
    <ellipse cx="600" cy="375.12" rx="24.48" ry="66.24000000000001" fill="#FFFDF7" transform="rotate(117 600 450)" />
    <ellipse cx="600" cy="375.12" rx="24.48" ry="66.24000000000001" fill="#FFFDF7" transform="rotate(153 600 450)" />
    <ellipse cx="600" cy="375.12" rx="24.48" ry="66.24000000000001" fill="#FFFDF7" transform="rotate(189 600 450)" />
    <ellipse cx="600" cy="375.12" rx="24.48" ry="66.24000000000001" fill="#FFFDF7" transform="rotate(225 600 450)" />
    <ellipse cx="600" cy="375.12" rx="24.48" ry="66.24000000000001" fill="#FFFDF7" transform="rotate(261 600 450)" />
    <ellipse cx="600" cy="375.12" rx="24.48" ry="66.24000000000001" fill="#FFFDF7" transform="rotate(297 600 450)" />
    <ellipse cx="600" cy="375.12" rx="24.48" ry="66.24000000000001" fill="#FFFDF7" transform="rotate(333 600 450)" />
    <ellipse cx="600" cy="375.12" rx="24.48" ry="66.24000000000001" fill="#FFFDF7" transform="rotate(369 600 450)" />
    <ellipse cx="600" cy="375.12" rx="24.48" ry="66.24000000000001" fill="#FFFDF7" transform="rotate(405 600 450)" />
    <ellipse cx="600" cy="375.12" rx="24.48" ry="66.24000000000001" fill="#FFFDF7" transform="rotate(441 600 450)" />
    <circle cx="600" cy="450" r="37.44" fill="#E8B23A" />
  </g>
</svg>