<svg viewBox="0 0 1200 900" width="1200" height="900" xmlns="http://www.w3.org/2000/svg" role="img" aria-label="Placeholder gallery photo">
  <defs>
    
  <filter id="grain-gallery-01" x="-20%" y="-20%" width="140%" height="140%">
    <feTurbulence type="fractalNoise" baseFrequency="0.85" numOctaves="2" seed="78" stitchTiles="stitch" result="noise" />
    <feColorMatrix in="noise" type="matrix" values="0 0 0 0 0.18  0 0 0 0 0.16  0 0 0 0 0.13  0 0 0 0.05 0" />
  </filter>
    <radialGradient id="grad-gallery-01" cx="53.6%" cy="49.85%" r="70%">
      <stop offset="0%" stop-color="#E7A79C" stop-opacity="0.16" />
      <stop offset="100%" stop-color="#E7A79C" stop-opacity="0" />
    </radialGradient>
  </defs>

  <rect width="1200" height="900" fill="#F4ECD9" />
  <rect width="1200" height="900" fill="url(#grad-gallery-01)" />
  <rect width="1200" height="900" filter="url(#grain-gallery-01)" opacity="0.5" />

  <rect x="48" y="36" width="1104" height="828" fill="none" stroke="#E2D6BE" stroke-width="1.5" />

  
  <g opacity="0.9">
    <ellipse cx="600" cy="375.12" rx="24.48" ry="66.24000000000001" fill="#FFFDF7" transform="rotate(91 600 450)" />
    <ellipse cx="600" cy="375.12" rx="24.48" ry="66.24000000000001" fill="#FFFDF7" transform="rotate(127 600 450)" />
    <ellipse cx="600" cy="375.12" rx="24.48" ry="66.24000000000001" fill="#FFFDF7" transform="rotate(163 600 450)" />
    <ellipse cx="600" cy="375.12" rx="24.48" ry="66.24000000000001" fill="#FFFDF7" transform="rotate(199 600 450)" />
    <ellipse cx="600" cy="375.12" rx="24.48" ry="66.24000000000001" fill="#FFFDF7" transform="rotate(235 600 450)" />
    <ellipse cx="600" cy="375.12" rx="24.48" ry="66.24000000000001" fill="#FFFDF7" transform="rotate(271 600 450)" />
    <ellipse cx="600" cy="375.12" rx="24.48" ry="66.24000000000001" fill="#FFFDF7" transform="rotate(307 600 450)" />
    <ellipse cx="600" cy="375.12" rx="24.48" ry="66.24000000000001" fill="#FFFDF7" transform="rotate(343 600 450)" />
    <ellipse cx="600" cy="375.12" rx="24.48" ry="66.24000000000001" fill="#FFFDF7" transform="rotate(379 600 450)" />
    <ellipse cx="600" cy="375.12" rx="24.48" ry="66.24000000000001" fill="#FFFDF7" transform="rotate(415 600 450)" />
    <circle cx="600" cy="450" r="37.44" fill="#E8B23A" />
  </g>
</svg>