<svg viewBox="0 0 1200 900" width="1200" height="900" xmlns="http://www.w3.org/2000/svg" role="img" aria-label="Placeholder gallery photo">
  <defs>
    
  <filter id="grain-gallery-06" x="-20%" y="-20%" width="140%" height="140%">
    <feTurbulence type="fractalNoise" baseFrequency="0.85" numOctaves="2" seed="82" stitchTiles="stitch" result="noise" />
    <feColorMatrix in="noise" type="matrix" values="0 0 0 0 0.18  0 0 0 0 0.16  0 0 0 0 0.13  0 0 0 0.05 0" />
  </filter>
    <radialGradient id="grad-gallery-06" cx="47.599999999999994%" cy="37.6%" r="70%">
      <stop offset="0%" stop-color="#E8B23A" stop-opacity="0.16" />
      <stop offset="100%" stop-color="#E8B23A" stop-opacity="0" />
    </radialGradient>
  </defs>

  <rect width="1200" height="900" fill="#F4ECD9" />
  <rect width="1200" height="900" fill="url(#grad-gallery-06)" />
  <rect width="1200" height="900" filter="url(#grain-gallery-06)" opacity="0.5" />

  <rect x="48" y="36" width="1104" height="828" fill="none" stroke="#E2D6BE" stroke-width="1.5" />

  
  <g opacity="0.9">
    <ellipse cx="600" cy="375.12" rx="24.48" ry="66.24000000000001" fill="#FFFDF7" transform="rotate(156 600 450)" />
    <ellipse cx="600" cy="375.12" rx="24.48" ry="66.24000000000001" fill="#FFFDF7" transform="rotate(192 600 450)" />
    <ellipse cx="600" cy="375.12" rx="24.48" ry="66.24000000000001" fill="#FFFDF7" transform="rotate(228 600 450)" />
    <ellipse cx="600" cy="375.12" rx="24.48" ry="66.24000000000001" fill="#FFFDF7" transform="rotate(264 600 450)" />
    <ellipse cx="600" cy="375.12" rx="24.48" ry="66.24000000000001" fill="#FFFDF7" transform="rotate(300 600 450)" />
    <ellipse cx="600" cy="375.12" rx="24.48" ry="66.24000000000001" fill="#FFFDF7" transform="rotate(336 600 450)" />
    <ellipse cx="600" cy="375.12" rx="24.48" ry="66.24000000000001" fill="#FFFDF7" transform="rotate(372 600 450)" />
    <ellipse cx="600" cy="375.12" rx="24.48" ry="66.24000000000001" fill="#FFFDF7" transform="rotate(408 600 450)" />
    <ellipse cx="600" cy="375.12" rx="24.48" ry="66.24000000000001" fill="#FFFDF7" transform="rotate(444 600 450)" />
    <ellipse cx="600" cy="375.12" rx="24.48" ry="66.24000000000001" fill="#FFFDF7" transform="rotate(480 600 450)" />
    <circle cx="600" cy="450" r="37.44" fill="#E8B23A" />
  </g>
</svg>