<svg viewBox="0 0 900 1125" width="900" height="1125" xmlns="http://www.w3.org/2000/svg" role="img" aria-label="Placeholder photo — moving in together">
  <defs>
    
  <filter id="grain-photo-05" x="-20%" y="-20%" width="140%" height="140%">
    <feTurbulence type="fractalNoise" baseFrequency="0.85" numOctaves="2" seed="86" stitchTiles="stitch" result="noise" />
    <feColorMatrix in="noise" type="matrix" values="0 0 0 0 0.18  0 0 0 0 0.16  0 0 0 0 0.13  0 0 0 0.05 0" />
  </filter>
    <radialGradient id="grad-photo-05" cx="64%" cy="47.75%" r="70%">
      <stop offset="0%" stop-color="#E7A79C" stop-opacity="0.16" />
      <stop offset="100%" stop-color="#E7A79C" stop-opacity="0" />
    </radialGradient>
  </defs>

  <rect width="900" height="1125" fill="#F4ECD9" />
  <rect width="900" height="1125" fill="url(#grad-photo-05)" />
  <rect width="900" height="1125" filter="url(#grain-photo-05)" opacity="0.5" />

  <rect x="36" y="45" width="828" height="1035" fill="none" stroke="#E2D6BE" stroke-width="1.5" />

  
  <g opacity="0.9">
    <ellipse cx="450" cy="487.62" rx="24.48" ry="66.24000000000001" fill="#FFFDF7" transform="rotate(65 450 562.5)" />
    <ellipse cx="450" cy="487.62" rx="24.48" ry="66.24000000000001" fill="#FFFDF7" transform="rotate(101 450 562.5)" />
    <ellipse cx="450" cy="487.62" rx="24.48" ry="66.24000000000001" fill="#FFFDF7" transform="rotate(137 450 562.5)" />
    <ellipse cx="450" cy="487.62" rx="24.48" ry="66.24000000000001" fill="#FFFDF7" transform="rotate(173 450 562.5)" />
    <ellipse cx="450" cy="487.62" rx="24.48" ry="66.24000000000001" fill="#FFFDF7" transform="rotate(209 450 562.5)" />
    <ellipse cx="450" cy="487.62" rx="24.48" ry="66.24000000000001" fill="#FFFDF7" transform="rotate(245 450 562.5)" />
    <ellipse cx="450" cy="487.62" rx="24.48" ry="66.24000000000001" fill="#FFFDF7" transform="rotate(281 450 562.5)" />
    <ellipse cx="450" cy="487.62" rx="24.48" ry="66.24000000000001" fill="#FFFDF7" transform="rotate(317 450 562.5)" />
    <ellipse cx="450" cy="487.62" rx="24.48" ry="66.24000000000001" fill="#FFFDF7" transform="rotate(353 450 562.5)" />
    <ellipse cx="450" cy="487.62" rx="24.48" ry="66.24000000000001" fill="#FFFDF7" transform="rotate(389 450 562.5)" />
    <circle cx="450" cy="562.5" r="37.44" fill="#E8B23A" />
  </g>
</svg>