<svg viewBox="0 0 900 1125" width="900" height="1125" xmlns="http://www.w3.org/2000/svg" role="img" aria-label="Placeholder photo — us, today">
  <defs>
    
  <filter id="grain-photo-06" x="-20%" y="-20%" width="140%" height="140%">
    <feTurbulence type="fractalNoise" baseFrequency="0.85" numOctaves="2" seed="98" stitchTiles="stitch" result="noise" />
    <feColorMatrix in="noise" type="matrix" values="0 0 0 0 0.18  0 0 0 0 0.16  0 0 0 0 0.13  0 0 0 0.05 0" />
  </filter>
    <radialGradient id="grad-photo-06" cx="38.800000000000004%" cy="31.3%" r="70%">
      <stop offset="0%" stop-color="#E8B23A" stop-opacity="0.16" />
      <stop offset="100%" stop-color="#E8B23A" stop-opacity="0" />
    </radialGradient>
  </defs>

  <rect width="900" height="1125" fill="#F4ECD9" />
  <rect width="900" height="1125" fill="url(#grad-photo-06)" />
  <rect width="900" height="1125" filter="url(#grain-photo-06)" opacity="0.5" />

  <rect x="36" y="45" width="828" height="1035" fill="none" stroke="#E2D6BE" stroke-width="1.5" />

  
  <g opacity="0.9">
    <ellipse cx="450" cy="487.62" rx="24.48" ry="66.24000000000001" fill="#FFFDF7" transform="rotate(78 450 562.5)" />
    <ellipse cx="450" cy="487.62" rx="24.48" ry="66.24000000000001" fill="#FFFDF7" transform="rotate(114 450 562.5)" />
    <ellipse cx="450" cy="487.62" rx="24.48" ry="66.24000000000001" fill="#FFFDF7" transform="rotate(150 450 562.5)" />
    <ellipse cx="450" cy="487.62" rx="24.48" ry="66.24000000000001" fill="#FFFDF7" transform="rotate(186 450 562.5)" />
    <ellipse cx="450" cy="487.62" rx="24.48" ry="66.24000000000001" fill="#FFFDF7" transform="rotate(222 450 562.5)" />
    <ellipse cx="450" cy="487.62" rx="24.48" ry="66.24000000000001" fill="#FFFDF7" transform="rotate(258 450 562.5)" />
    <ellipse cx="450" cy="487.62" rx="24.48" ry="66.24000000000001" fill="#FFFDF7" transform="rotate(294 450 562.5)" />
    <ellipse cx="450" cy="487.62" rx="24.48" ry="66.24000000000001" fill="#FFFDF7" transform="rotate(330 450 562.5)" />
    <ellipse cx="450" cy="487.62" rx="24.48" ry="66.24000000000001" fill="#FFFDF7" transform="rotate(366 450 562.5)" />
    <ellipse cx="450" cy="487.62" rx="24.48" ry="66.24000000000001" fill="#FFFDF7" transform="rotate(402 450 562.5)" />
    <circle cx="450" cy="562.5" r="37.44" fill="#E8B23A" />
  </g>
</svg>